PathFileType	4	(X/Y/Z)	RBDS08static.trc
DataRate	CameraRate	NumFrames	NumMarkers	Units	OrigDataRate	OrigDataStartFrame	OrigNumFrames
150.000000	150.000000	4	48	mm	150.000000	56	150
Frame#	Time	L.Ankle			L.Ankle.Medial			L.ASIS			L.GTR			L.Heel.Bottom			L.Heel.Lateral			L.Heel.Top			L.HF			L.Iliac.Crest			L.Knee			L.Knee.Medial			L.MT1			L.MT2			L.MT5			L.PSIS			L.Shank.Bottom.Lateral			L.Shank.Bottom.Medial			L.Shank.Top.Lateral			L.Shank.Top.Medial			L.Thigh.Bottom.Lateral			L.Thigh.Bottom.Medial			L.Thigh.Top.Lateral			L.Thigh.Top.Medial			L.TT			R.Ankle			R.Ankle.Medial			R.ASIS			R.GTR			R.Heel.Bottom			R.Heel.Lateral			R.Heel.Top			R.HF			R.Iliac.Crest			R.Knee			R.Knee.Medial			R.MT1			R.MT2			R.MT5			R.PSIS			R.Shank.Bottom.Lateral			R.Shank.Bottom.Medial			R.Shank.Top.Lateral			R.Shank.Top.Medial			R.Thigh.Bottom.Lateral			R.Thigh.Bottom.Medial			R.Thigh.Top.Lateral			R.Thigh.Top.Medial			R.TT			
		X1	Y1	Z1	X2	Y2	Z2	X3	Y3	Z3	X4	Y4	Z4	X5	Y5	Z5	X6	Y6	Z6	X7	Y7	Z7	X8	Y8	Z8	X9	Y9	Z9	X10	Y10	Z10	X11	Y11	Z11	X12	Y12	Z12	X13	Y13	Z13	X14	Y14	Z14	X15	Y15	Z15	X16	Y16	Z16	X17	Y17	Z17	X18	Y18	Z18	X19	Y19	Z19	X20	Y20	Z20	X21	Y21	Z21	X22	Y22	Z22	X23	Y23	Z23	X24	Y24	Z24	X25	Y25	Z25	X26	Y26	Z26	X27	Y27	Z27	X28	Y28	Z28	X29	Y29	Z29	X30	Y30	Z30	X31	Y31	Z31	X32	Y32	Z32	X33	Y33	Z33	X34	Y34	Z34	X35	Y35	Z35	X36	Y36	Z36	X37	Y37	Z37	X38	Y38	Z38	X39	Y39	Z39	X40	Y40	Z40	X41	Y41	Z41	X42	Y42	Z42	X43	Y43	Z43	X44	Y44	Z44	X45	Y45	Z45	X46	Y46	Z46	X47	Y47	Z47	X48	Y48	Z48	

57	0.3733333333333334	756.646728515625	103.2699356079102	1046.899291992188	774.171630859375	108.3704299926758	1131.324096679688	901.80224609375	1042.429321289063	1110.206787109375	832.399658203125	938.8840942382813	1049.1728515625	670.9945068359375	44.80813217163086	1081.099609375	702.1024169921875	63.15660858154297	1036.892211914063	685.30419921875	94.67669677734375	1086.004150390625	787.0169067382813	480.5915832519531	1031.309936523438	828.6690063476563	1104.826538085938	1081.129760742188	791.8450927734375	539.971923828125	1038.233520507813	780.6550903320313	522.5313110351563	1151.432373046875	900.1902465820313	62.65390396118164	1116.427978515625	903.2374877929688	67.04203033447266	1075.293823242188	861.0648803710938	50.42520141601563	1009.383178710938	731.7229614257813	1059.619262695313	1180.647705078125	745.026611328125	176.3930206298828	1038.149291992188	706.9993896484375	177.2315063476563	1073.514526367188	740.0701904296875	256.3516845703125	1026.353637695313	704.6705932617188	261.6723022460938	1066.235595703125	801.5696411132813	674.6887817382813	1022.208984375	742.576904296875	669.5504760742188	1065.547607421875	794.7393798828125	785.2282104492188	1029.138671875	742.1055908203125	779.5908813476563	1075.641967773438	836.2809448242188	453.2061157226563	1079.940673828125	737.0214233398438	108.3089752197266	1407.472778320313	762.6732177734375	114.9010772705078	1323.962280273438	908.091796875	1038.715209960938	1345.943237304688	834.1930541992188	944.4904174804688	1404.046875	657.7508544921875	43.80865478515625	1371.132934570313	685.6328735351563	60.95968627929688	1412.8271484375	668.944091796875	93.09900665283203	1369.088134765625	771.1162109375	487.271484375	1432.773681640625	839.6151733398438	1097.427124023438	1377.957885742188	775.0611572265625	543.2626953125	1426.181396484375	764.4471435546875	521.8994750976563	1313.495849609375	884.385009765625	60.79352951049805	1330.544921875	890.7909545898438	68.86508178710938	1376.731689453125	852.4306030273438	56.68588638305664	1436.8271484375	734.5587768554688	1060.804321289063	1283.713989257813	716.5438232421875	192.1858825683594	1418.490844726563	690.1644287109375	196.2265930175781	1369.581665039063	707.5790405273438	272.665771484375	1426.616333007813	686.3387451171875	275.778564453125	1377.046142578125	790.9905395507813	652.6417236328125	1435.923461914063	731.576416015625	654.4657592773438	1392.268920898438	793.3783569335938	763.1754760742188	1433.658081054688	738.4277954101563	764.35595703125	1391.59619140625	818.7907104492188	461.0550842285156	1385.533447265625	
58	0.38	756.6387329101563	103.2788467407227	1046.905517578125	774.1782836914063	108.3647079467773	1131.320678710938	901.8267211914063	1042.428588867188	1110.23291015625	832.3963012695313	938.8890991210938	1049.204956054688	670.9935302734375	44.81682586669922	1081.10205078125	702.1103515625	63.15541076660156	1036.890258789063	685.3051147460938	94.68466949462891	1086.009033203125	787.037353515625	480.5933837890625	1031.32958984375	828.6688842773438	1104.829833984375	1081.15966796875	791.8507690429688	539.9769287109375	1038.258666992188	780.6456909179688	522.5347900390625	1151.452514648438	900.193359375	62.64340591430664	1116.432983398438	903.236572265625	67.03874969482422	1075.293334960938	861.0624389648438	50.42527389526367	1009.392578125	731.7355346679688	1059.624877929688	1180.679809570313	745.02490234375	176.3928833007813	1038.162353515625	707.0000610351563	177.2323760986328	1073.51953125	740.0714111328125	256.3534545898438	1026.362426757813	704.679443359375	261.6668701171875	1066.246459960938	801.5629272460938	674.6895141601563	1022.230102539063	742.5801391601563	669.549560546875	1065.57470703125	794.741455078125	785.2296752929688	1029.1630859375	742.109619140625	779.583740234375	1075.668579101563	836.3013916015625	453.2135314941406	1079.9677734375	737.0054931640625	108.324089050293	1407.4609375	762.6755981445313	114.8904190063477	1323.961547851563	908.111328125	1038.695678710938	1345.978881835938	834.2067260742188	944.4856567382813	1404.0712890625	657.7533569335938	43.8162727355957	1371.133544921875	685.6400756835938	60.95869064331055	1412.82373046875	668.9434814453125	93.09498596191406	1369.0908203125	771.1143798828125	487.2642211914063	1432.78564453125	839.6346435546875	1097.414184570313	1377.99658203125	775.0442504882813	543.2435913085938	1426.198608398438	764.4445190429688	521.8951416015625	1313.522094726563	884.3930053710938	60.7890625	1330.55126953125	890.7947998046875	68.85842132568359	1376.732177734375	852.432373046875	56.68599700927734	1436.832641601563	734.5748291015625	1060.805419921875	1283.75	716.5501098632813	192.1830139160156	1418.495361328125	690.1632690429688	196.2260894775391	1369.592163085938	707.5742797851563	272.6659240722656	1426.62646484375	686.3397216796875	275.7915954589844	1377.050048828125	790.9918823242188	652.6380615234375	1435.93896484375	731.5751953125	654.4720458984375	1392.291625976563	793.388671875	763.1724853515625	1433.672973632813	738.4415893554688	764.3601684570313	1391.616455078125	818.7725219726563	461.037353515625	1385.561157226563	
59	0.3866666666666667	756.6459350585938	103.2772369384766	1046.905639648438	774.1762084960938	108.3814468383789	1131.32373046875	901.8396606445313	1042.433959960938	1110.253662109375	832.4196166992188	938.8875122070313	1049.223022460938	670.994384765625	44.82059478759766	1081.101806640625	702.1136474609375	63.15342712402344	1036.899780273438	685.3140258789063	94.67443084716797	1086.005615234375	787.038330078125	480.5974731445313	1031.349243164063	828.6848754882813	1104.819458007813	1081.191040039063	791.8570556640625	539.9848022460938	1038.271484375	780.66455078125	522.5361328125	1151.474243164063	899.6422729492188	62.04931640625	1116.486083984375	903.2341918945313	67.03672027587891	1075.30029296875	861.061767578125	50.42848968505859	1009.387939453125	731.7494506835938	1059.625	1180.712524414063	745.0296630859375	176.4021759033203	1038.166137695313	706.9998779296875	177.2340698242188	1073.520629882813	740.0849609375	256.3597717285156	1026.3671875	704.6812744140625	261.6737670898438	1066.24951171875	801.5669555664063	674.6962890625	1022.255249023438	742.5889892578125	669.5521240234375	1065.591552734375	794.7491455078125	785.227783203125	1029.182861328125	742.1163940429688	779.5910034179688	1075.692749023438	836.3082275390625	453.2090148925781	1079.966674804688	737.0142211914063	108.3091659545898	1407.472045898438	762.6777954101563	114.8963470458984	1323.955932617188	908.141845703125	1038.697875976563	1345.985961914063	834.2296752929688	944.484375	1404.096435546875	657.7489624023438	43.81404876708984	1371.132934570313	685.6373901367188	60.95274353027344	1412.821044921875	668.9415283203125	93.09890747070313	1369.081787109375	771.1124877929688	487.2545471191406	1432.80126953125	839.6514282226563	1097.403442382813	1378.01904296875	775.0603637695313	543.257080078125	1426.215576171875	764.444580078125	521.8964233398438	1313.528930664063	884.39453125	60.79685592651367	1330.551025390625	890.7914428710938	68.85913848876953	1376.724853515625	852.4275512695313	56.68457412719727	1436.831298828125	734.5901489257813	1060.807006835938	1283.772216796875	716.5421752929688	192.1910552978516	1418.484985351563	690.1726684570313	196.22119140625	1369.596923828125	707.5795288085938	272.65771484375	1426.631958007813	686.3438110351563	275.7894287109375	1377.057250976563	790.9967651367188	652.6361694335938	1435.953735351563	731.5842895507813	654.4678955078125	1392.303100585938	793.4029541015625	763.1661987304688	1433.695068359375	738.445068359375	764.3515625	1391.636962890625	818.7765502929688	461.0436096191406	1385.567016601563	
60	0.3933333333333334	756.647705078125	103.2749862670898	1046.900268554688	774.1720581054688	108.3733520507813	1131.333618164063	901.8455200195313	1042.427490234375	1110.279907226563	832.4221801757813	938.888916015625	1049.250122070313	670.99658203125	44.81598663330078	1081.107055664063	702.1151123046875	63.15985107421875	1036.888427734375	685.3046875	94.68763732910156	1086.009643554688	787.034912109375	480.5974731445313	1031.364135742188	828.696044921875	1104.822998046875	1081.2236328125	791.8677368164063	539.9904174804688	1038.290893554688	780.672119140625	522.5376586914063	1151.487670898438	900.1954345703125	62.64946365356445	1116.440673828125	903.24072265625	67.039794921875	1075.298461914063	861.0659790039063	50.42917251586914	1009.389465332031	731.7622680664063	1059.6298828125	1180.739501953125	745.0302734375	176.4061889648438	1038.171020507813	707.005126953125	177.2459716796875	1073.528198242188	740.0819091796875	256.3684387207031	1026.376586914063	704.676025390625	261.6857299804688	1066.253540039063	801.57275390625	674.7001953125	1022.266906738281	742.5965576171875	669.5527954101563	1065.609741210938	794.7579956054688	785.2294921875	1029.207641601563	742.1255493164063	779.5916748046875	1075.721557617188	836.3114624023438	453.2155151367188	1079.986938476563	737.0167236328125	108.3231735229492	1407.4736328125	762.6873779296875	114.894775390625	1323.954833984375	908.16357421875	1038.694458007813	1346.01416015625	834.2528076171875	944.4818115234375	1404.117309570313	657.7564086914063	43.81777572631836	1371.135131835938	685.6315307617188	60.96033096313477	1412.825805664063	668.9466552734375	93.09796142578125	1369.087890625	771.1339721679688	487.2461547851563	1432.80517578125	839.6681518554688	1097.390869140625	1378.040771484375	775.0482177734375	543.2449340820313	1426.233032226563	764.4476928710938	521.8984375	1313.549682617188	884.3985595703125	60.79683303833008	1330.540893554688	890.7939453125	68.84918212890625	1376.732543945313	852.4329833984375	56.68141555786133	1436.8271484375	734.6082153320313	1060.806640625	1283.811889648438	716.5506591796875	192.1806182861328	1418.491088867188	690.1663208007813	196.2270965576172	1369.59619140625	707.5838623046875	272.6609802246094	1426.6318359375	686.3389892578125	275.7966613769531	1377.06201171875	791.0087280273438	652.6278686523438	1435.970092773438	731.5906982421875	654.4696655273438	1392.315307617188	793.40625	763.1638793945313	1433.713134765625	738.4522094726563	764.3619384765625	1391.65771484375	818.7689208984375	461.0340270996094	1385.576904296875	
